<svg xmlns="http://www.w3.org/2000/svg" viewBox="0 0 7410 3900">
<rect width="7410" height="3900" fill="#B22234"></rect>
<g fill="#fff">
<rect y="300" width="7410" height="300"></rect>
<rect y="900" width="7410" height="300"></rect>
<rect y="1500" width="7410" height="300"></rect>
<rect y="2100" width="7410" height="300"></rect>
<rect y="2700" width="7410" height="300"></rect>
<rect y="3300" width="7410" height="300"></rect>
</g>
<rect width="2964" height="2100" fill="#3C3B6E"></rect>
<g fill="#fff">
<circle cx="247" cy="210" r="70"></circle><circle cx="741" cy="210" r="70"></circle><circle cx="1235" cy="210" r="70"></circle><circle cx="1729" cy="210" r="70"></circle><circle cx="2223" cy="210" r="70"></circle><circle cx="2717" cy="210" r="70"></circle><circle cx="494" cy="420" r="70"></circle><circle cx="988" cy="420" r="70"></circle><circle cx="1482" cy="420" r="70"></circle><circle cx="1976" cy="420" r="70"></circle><circle cx="2470" cy="420" r="70"></circle><circle cx="247" cy="630" r="70"></circle><circle cx="741" cy="630" r="70"></circle><circle cx="1235" cy="630" r="70"></circle><circle cx="1729" cy="630" r="70"></circle><circle cx="2223" cy="630" r="70"></circle><circle cx="2717" cy="630" r="70"></circle><circle cx="494" cy="840" r="70"></circle><circle cx="988" cy="840" r="70"></circle><circle cx="1482" cy="840" r="70"></circle><circle cx="1976" cy="840" r="70"></circle><circle cx="2470" cy="840" r="70"></circle><circle cx="247" cy="1050" r="70"></circle><circle cx="741" cy="1050" r="70"></circle><circle cx="1235" cy="1050" r="70"></circle><circle cx="1729" cy="1050" r="70"></circle><circle cx="2223" cy="1050" r="70"></circle><circle cx="2717" cy="1050" r="70"></circle><circle cx="494" cy="1260" r="70"></circle><circle cx="988" cy="1260" r="70"></circle><circle cx="1482" cy="1260" r="70"></circle><circle cx="1976" cy="1260" r="70"></circle><circle cx="2470" cy="1260" r="70"></circle><circle cx="247" cy="1470" r="70"></circle><circle cx="741" cy="1470" r="70"></circle><circle cx="1235" cy="1470" r="70"></circle><circle cx="1729" cy="1470" r="70"></circle><circle cx="2223" cy="1470" r="70"></circle><circle cx="2717" cy="1470" r="70"></circle><circle cx="494" cy="1680" r="70"></circle><circle cx="988" cy="1680" r="70"></circle><circle cx="1482" cy="1680" r="70"></circle><circle cx="1976" cy="1680" r="70"></circle><circle cx="2470" cy="1680" r="70"></circle><circle cx="247" cy="1890" r="70"></circle><circle cx="741" cy="1890" r="70"></circle><circle cx="1235" cy="1890" r="70"></circle><circle cx="1729" cy="1890" r="70"></circle><circle cx="2223" cy="1890" r="70"></circle><circle cx="2717" cy="1890" r="70"></circle>
</g>
</svg>